<?xml version="1.0" encoding="UTF-8" standalone="no"?>
<!-- Generator: Adobe Illustrator 18.0.0, SVG Export Plug-In . SVG Version: 6.00 Build 0)  -->

<svg
   version="1.1"
   id="Capa_1"
   x="0px"
   y="0px"
   viewBox="0 0 294.50808 383.88725"
   xml:space="preserve"
   sodipodi:docname="pts-stickersvg.svg"
   width="294.50809"
   height="383.88727"
   inkscape:version="1.1.2 (0a00cf5339, 2022-02-04)"
   xmlns:inkscape="http://www.inkscape.org/namespaces/inkscape"
   xmlns:sodipodi="http://sodipodi.sourceforge.net/DTD/sodipodi-0.dtd"
   xmlns:xlink="http://www.w3.org/1999/xlink"
   xmlns="http://www.w3.org/2000/svg"
   xmlns:svg="http://www.w3.org/2000/svg"
   xmlns:rdf="http://www.w3.org/1999/02/22-rdf-syntax-ns#"
   xmlns:cc="http://creativecommons.org/ns#"
   xmlns:dc="http://purl.org/dc/elements/1.1/"><metadata
   id="metadata51"><rdf:RDF><cc:Work
       rdf:about=""><dc:format>image/svg+xml</dc:format><dc:type
         rdf:resource="http://purl.org/dc/dcmitype/StillImage" /></cc:Work></rdf:RDF></metadata><defs
   id="defs49" /><sodipodi:namedview
   pagecolor="#ffffff"
   bordercolor="#666666"
   borderopacity="1"
   objecttolerance="10"
   gridtolerance="10"
   guidetolerance="10"
   inkscape:pageopacity="0"
   inkscape:pageshadow="2"
   inkscape:window-width="1920"
   inkscape:window-height="1011"
   id="namedview47"
   showgrid="true"
   showguides="true"
   inkscape:guide-bbox="true"
   fit-margin-top="0"
   fit-margin-left="29"
   fit-margin-right="29"
   fit-margin-bottom="0"
   inkscape:zoom="1.3478111"
   inkscape:cx="163.96957"
   inkscape:cy="278.97085"
   inkscape:window-x="0"
   inkscape:window-y="32"
   inkscape:window-maximized="1"
   inkscape:current-layer="Capa_1"
   inkscape:snap-bbox="true"
   inkscape:snap-bbox-midpoints="true"
   inkscape:snap-midpoints="true"
   inkscape:snap-grids="false"
   inkscape:pagecheckerboard="0"><inkscape:grid
     type="xygrid"
     id="grid870"
     originx="-2.3462795"
     originy="91.786082" /><sodipodi:guide
     position="227.65372,96.198657"
     orientation="1,0"
     id="guide4563"
     inkscape:locked="false" /><sodipodi:guide
     position="157.65372,81.756703"
     orientation="0,1"
     id="guide4565"
     inkscape:locked="false" /><sodipodi:guide
     position="147.65373,631.75667"
     orientation="0,1"
     id="guide4593"
     inkscape:locked="false" /><sodipodi:guide
     position="153.65372,289.75667"
     orientation="0,1"
     id="guide855"
     inkscape:locked="false" /><sodipodi:guide
     position="-66.007282,73.435771"
     orientation="0,1"
     id="guide876"
     inkscape:locked="false" /><sodipodi:guide
     position="161.11513,224.8643"
     orientation="0,1"
     id="guide843"
     inkscape:locked="false" /><sodipodi:guide
     position="42.271986,52.332281"
     orientation="1,0"
     id="guide54027" /><sodipodi:guide
     position="252.61332,36.034648"
     orientation="1,0"
     id="guide54029" /></sodipodi:namedview><path
   id="path868-3"
   style="color:#000000;font-style:normal;font-variant:normal;font-weight:normal;font-stretch:normal;font-size:medium;line-height:normal;font-family:sans-serif;font-variant-ligatures:normal;font-variant-position:normal;font-variant-caps:normal;font-variant-numeric:normal;font-variant-alternates:normal;font-feature-settings:normal;text-indent:0;text-align:start;text-decoration:none;text-decoration-line:none;text-decoration-style:solid;text-decoration-color:#000000;letter-spacing:normal;word-spacing:normal;text-transform:none;writing-mode:lr-tb;direction:ltr;text-orientation:mixed;dominant-baseline:auto;baseline-shift:baseline;text-anchor:start;white-space:normal;shape-padding:0;clip-rule:nonzero;display:inline;overflow:visible;visibility:visible;isolation:auto;mix-blend-mode:normal;color-interpolation:sRGB;color-interpolation-filters:linearRGB;solid-color:#000000;solid-opacity:1;vector-effect:none;fill:#ffffff;fill-opacity:1;fill-rule:nonzero;stroke:none;stroke-width:20;stroke-linecap:round;stroke-linejoin:round;stroke-miterlimit:4;stroke-dasharray:none;stroke-dashoffset:0;stroke-opacity:1;marker:none;paint-order:stroke fill markers;color-rendering:auto;image-rendering:auto;shape-rendering:auto;text-rendering:auto;enable-background:accumulate"
   d="M 142.99372,0.06998997 C 123.1517,0.57782397 103.15416,2.3892492 84.465795,9.3167143 70.954065,14.292479 58.142915,21.752369 48.177316,32.254937 c -8.350001,8.819195 -14.47371,20.025014 -16.137693,32.144425 -1.6201,11.495425 0.973729,23.558523 7.346677,33.281357 2.135077,3.331491 4.643186,6.422251 7.441406,9.218751 -4.79724,64.83433 -12.910493,131.66988 -17.741852,196.50142 -1.476043,12.30477 -2.140795,28.88437 4.191534,39.43606 7.093938,12.01745 20.223816,18.12152 32.146918,25.33815 4.115372,2.39657 8.657503,3.98645 13.313549,4.93976 14.200988,3.37309 30.473835,6.51161 44.903565,8.74523 6.71886,1.00131 15.89797,1.92954 22.70074,2.02161 7.37802,0.0926 17.11825,-0.98726 24.41163,-1.96661 10.34943,-1.52222 22.64666,-3.38844 32.90363,-5.43797 5.48503,-1.13444 10.97796,-2.33547 16.29782,-4.10163 4.39729,-1.88795 8.44771,-4.46899 12.54275,-6.92095 10.30175,-6.42384 22.73318,-10.55154 29.17531,-20.95795 5.91853,-9.54239 5.02828,-24.95504 3.97632,-36.19177 -3.77023,-53.1714 -10.91662,-108.34067 -14.70597,-161.51127 -0.94295,-13.20428 -1.88589,-26.40856 -2.82883,-39.61283 9.09591,-8.881097 15.20452,-21.031321 15.95028,-33.801997 C 264.9172,60.135265 260.31858,46.81452 252.17425,36.423277 244.03045,25.830124 232.82823,17.913343 220.75348,12.382293 205.58186,5.4039922 189.03974,2.7639224 172.49443,1.0902114 162.69669,0.13422797 152.83331,-0.14912363 142.99372,0.06998997 Z"
   sodipodi:nodetypes="ccccccccccccccccccccccccc" /><g
   id="g16"
   transform="translate(-2.3462845,-7.6937666)" /><g
   id="g18"
   transform="translate(-2.3462845,-7.6937666)" /><g
   id="g20"
   transform="translate(-2.3462845,-7.6937666)" /><g
   id="g22"
   transform="translate(-2.3462845,-7.6937666)" /><g
   id="g24"
   transform="translate(-2.3462845,-7.6937666)" /><g
   id="g26"
   transform="translate(-2.3462845,-7.6937666)" /><g
   id="g28"
   transform="translate(-2.3462845,-7.6937666)" /><g
   id="g30"
   transform="translate(-2.3462845,-7.6937666)" /><g
   id="g32"
   transform="translate(-2.3462845,-7.6937666)" /><g
   id="g34"
   transform="translate(-2.3462845,-7.6937666)" /><g
   id="g36"
   transform="translate(-2.3462845,-7.6937666)" /><g
   id="g38"
   transform="translate(-2.3462845,-7.6937666)" /><g
   id="g40"
   transform="translate(-2.3462845,-7.6937666)" /><g
   id="g42"
   transform="translate(-2.3462845,-7.6937666)" /><g
   id="g44"
   transform="translate(-2.3462845,-7.6937666)" /><path
   style="color:#000000;font-style:normal;font-variant:normal;font-weight:normal;font-stretch:normal;font-size:medium;line-height:normal;font-family:sans-serif;font-variant-ligatures:normal;font-variant-position:normal;font-variant-caps:normal;font-variant-numeric:normal;font-variant-alternates:normal;font-feature-settings:normal;text-indent:0;text-align:start;text-decoration:none;text-decoration-line:none;text-decoration-style:solid;text-decoration-color:#000000;letter-spacing:normal;word-spacing:normal;text-transform:none;writing-mode:lr-tb;direction:ltr;text-orientation:mixed;dominant-baseline:auto;baseline-shift:baseline;text-anchor:start;white-space:normal;shape-padding:0;clip-rule:nonzero;display:inline;overflow:visible;visibility:visible;opacity:1;isolation:auto;mix-blend-mode:normal;color-interpolation:sRGB;color-interpolation-filters:linearRGB;solid-color:#000000;solid-opacity:1;vector-effect:none;fill:#030000;fill-opacity:1;fill-rule:nonzero;stroke:none;stroke-width:20;stroke-linecap:round;stroke-linejoin:round;stroke-miterlimit:4;stroke-dasharray:none;stroke-dashoffset:0;stroke-opacity:1;marker:none;paint-order:stroke fill markers;color-rendering:auto;image-rendering:auto;shape-rendering:auto;text-rendering:auto;enable-background:accumulate"
   d="m 149.47346,10.014703 c -49.987912,0 -82.407947,14.364428 -98.005867,34.992188 -7.79896,10.313879 -11.086502,22.455519 -9.054687,33.867187 1.693809,9.513264 7.034113,18.181833 15.003906,24.800782 L 42.709781,268.55767 c -2.182264,15.86119 5.204041,29.75942 13.634765,39.75586 4.250215,5.03954 8.87559,9.21589 13.304688,12.44531 4.429098,3.22942 8.270581,5.57339 13.066406,6.77148 5.64422,1.41008 46.47134,11.36648 65.01563,11.24415 8.584,-0.0566 22.43249,-2.19432 35.94141,-4.58008 6.75446,-1.19288 13.2194,-2.45805 18.41211,-3.61719 2.59635,-0.57957 4.86577,-1.12939 6.79101,-1.66406 1.92524,-0.53468 2.98507,-0.60484 5.63672,-2.10352 4.12428,-2.33098 13.99472,-7.44771 22.71289,-15.82226 8.71817,-8.37456 16.84932,-21.20082 15.38672,-37.27149 l 0.006,0.0527 -14.5625,-169.88867 c 8.02585,-6.588158 13.53009,-15.191262 15.53501,-24.693322 2.37908,-11.275218 -0.31879,-23.482737 -7.67968,-33.914063 -14.72178,-20.86265 -46.4496,-35.257812 -96.4375,-35.257812 z m 0,8.5 c 48.32402,0 77.13486,14.146274 89.49218,31.658203 6.17869,8.755965 8.18249,18.37683 6.3086,27.257813 -1.83904,8.715809 -7.39674,16.667573 -16.0918,22.46289 l 14.96289,174.574211 0.002,0.0254 c 1.85761,12.67141 -4.47693,22.91248 -12.25977,30.3789 -7.80223,7.48503 -17.13411,12.37586 -21.71875,14.6836 -0.8971,0.45156 -2.11987,0.77154 -3.94922,1.21679 -1.82935,0.44525 -4.16922,0.94712 -6.87109,1.48438 -5.40375,1.07452 -12.24894,2.28755 -19.22071,3.43359 -6.97176,1.14604 -14.06718,2.22419 -19.96875,3.02344 -5.90156,0.79925 -10.53075,1.32547 -12.89062,1.35547 -2.44773,0.0311 -7.38645,-0.56838 -13.79883,-1.50391 -6.41238,-0.93552 -14.17587,-2.21883 -21.78711,-3.5918 -7.61124,-1.37296 -15.067032,-2.83453 -20.867191,-4.1289 -2.900079,-0.64719 -5.383526,-1.25099 -7.287109,-1.78906 -0.951791,-0.26904 -1.757882,-0.52201 -2.416016,-0.76368 -0.658133,-0.24166 -1.134642,-0.41773 -1.638671,-0.79882 -3.576586,-2.70422 -11.720256,-8.5963 -18.439454,-16.83985 -6.694104,-8.21275 -12.06088,-18.92634 -9.875,-31.16406 L 66.301577,99.717828 C 57.657347,93.933672 52.321421,86.029723 50.782046,77.383844 c -1.584877,-8.90145 0.857241,-18.511653 7.464844,-27.25 13.215206,-17.476696 42.90254,-31.619141 91.22657,-31.619141 z m 0,3 c -47.73677,0 -76.457791,14.06318 -88.832039,30.427734 -6.187124,8.182278 -8.333385,16.900525 -6.90625,24.916016 1.413586,7.939389 6.349417,15.256755 14.712891,20.6875 a 1.50015,1.50015 0 0 1 0.927734,1.439453 1.5002301,1.5002301 0 0 1 -0.0059,0.101563 1.5002301,1.5002301 0 0 1 -0.0078,0.08984 v 0.002 L 54.147281,269.75493 a 1.50015,1.50015 0 0 1 -0.01758,0.13672 c -2.042644,11.15682 2.819745,21.0021 9.230468,28.86719 6.410724,7.86509 14.275962,13.58322 17.921875,16.33984 -0.05262,-0.0398 0.321544,0.17927 0.865235,0.37891 0.54369,0.19964 1.291688,0.43543 2.197265,0.69141 1.811155,0.51195 4.257404,1.1081 7.125,1.74804 5.735193,1.27988 13.162206,2.73584 20.744146,4.10352 7.58193,1.36768 15.32275,2.64731 21.68944,3.57617 6.36672,0.92886 11.48276,1.49606 13.32813,1.47266 1.93323,-0.0246 6.66229,-0.53409 12.52539,-1.32813 5.8631,-0.79404 12.93755,-1.86776 19.88477,-3.00976 6.94721,-1.14201 13.76878,-2.35368 19.12109,-3.41797 2.67615,-0.53215 4.98709,-1.02648 6.74805,-1.45508 1.76096,-0.4286 3.06776,-0.86119 3.30859,-0.98242 4.51887,-2.27463 13.58165,-7.06059 20.99024,-14.16797 7.40855,-7.10738 13.08597,-16.34127 11.36132,-27.86328 a 1.50015,1.50015 0 0 1 -0.0117,-0.0937 l -15,-174.999999 a 1.50015,1.50015 0 0 1 0.17579,-0.886719 1.50015,1.50015 0 0 1 0.72656,-1.154297 C 235.46892,92.260634 240.64311,84.847586 242.3387,76.811628 244.03429,68.77567 242.2759,60.068085 236.51448,51.903425 224.99165,35.574054 197.21023,21.514703 149.47346,21.514703 Z m 0,8.5 c 46.07289,0 70.93732,13.810468 80.0957,26.789062 4.57919,6.489298 5.64353,12.612187 4.45313,18.253907 -1.19041,5.64172 -4.80138,11.123327 -11.58399,15.519531 a 10.001,10.001 0 0 0 -4.64062,7.205078 10.001,10.001 0 0 0 -0.0215,0.126953 10.001,10.001 0 0 0 -0.002,0.02148 10.001,10.001 0 0 0 -0.084,2.544926 l 15,174.99999 a 10.001,10.001 0 0 0 0.004,0.0527 c 0.79319,8.71532 -3.16628,15.11993 -9.32422,21.03516 -6.15794,5.91523 -13.94734,10.14829 -18.69922,12.83398 1.54213,-0.8716 0.24871,-0.14139 -1.14648,0.2461 -1.39519,0.38747 -3.41488,0.88234 -5.79688,1.41406 -4.76399,1.06344 -11.01727,2.29064 -17.5332,3.44141 -13.03186,2.30151 -27.92784,4.24655 -32.5957,4.27734 -7.95941,0.0525 -59.139927,-10.42674 -60.035164,-10.65039 0.02661,0.007 -3.020008,-1.25911 -6.130859,-3.52735 -3.110851,-2.26824 -6.676124,-5.47704 -9.798828,-9.17969 -6.245409,-7.40528 -10.274316,-16.27224 -9.085938,-24.33985 a 10.001,10.001 0 0 0 0.06641,-0.56836 l 15.085914,-169.1308 a 10.001,10.001 0 0 0 -0.519531,-6.240237 10.001,10.001 0 0 0 -0.158203,-0.378906 10.001,10.001 0 0 0 -0.04297,-0.08984 10.001,10.001 0 0 0 -4.916016,-4.933594 C 66.03638,85.525944 63.023095,80.539525 62.102359,75.368219 61.122161,69.862948 62.424952,63.676134 67.420718,57.069391 77.41225,43.855903 103.40056,30.014703 149.47346,30.014703 Z"
   id="path868"
   inkscape:connector-curvature="0"
   sodipodi:insensitive="true" /><path
   style="color:#000000;font-style:normal;font-variant:normal;font-weight:normal;font-stretch:normal;font-size:medium;line-height:normal;font-family:sans-serif;font-variant-ligatures:normal;font-variant-position:normal;font-variant-caps:normal;font-variant-numeric:normal;font-variant-alternates:normal;font-feature-settings:normal;text-indent:0;text-align:start;text-decoration:none;text-decoration-line:none;text-decoration-style:solid;text-decoration-color:#000000;letter-spacing:normal;word-spacing:normal;text-transform:none;writing-mode:lr-tb;direction:ltr;text-orientation:mixed;dominant-baseline:auto;baseline-shift:baseline;text-anchor:start;white-space:normal;shape-padding:0;clip-rule:nonzero;display:inline;overflow:visible;visibility:visible;opacity:1;isolation:auto;mix-blend-mode:normal;color-interpolation:sRGB;color-interpolation-filters:linearRGB;solid-color:#000000;solid-opacity:1;vector-effect:none;fill:#030000;fill-opacity:1;fill-rule:nonzero;stroke:none;stroke-width:12.6919;stroke-linecap:round;stroke-linejoin:round;stroke-miterlimit:4;stroke-dasharray:none;stroke-dashoffset:0;stroke-opacity:1;marker:none;paint-order:stroke fill markers;color-rendering:auto;image-rendering:auto;shape-rendering:auto;text-rendering:auto;enable-background:accumulate"
   d="m 105.06525,130.08111 a 6.3465752,6.3465752 0 0 0 -6.128907,5.90625 L 86.346499,287.15142 a 6.3465752,6.3465752 0 1 0 12.648438,1.05273 L 111.58478,137.04204 a 6.3465752,6.3465752 0 0 0 -6.51953,-6.96093 z"
   id="path4567"
   inkscape:connector-curvature="0" /><path
   style="color:#000000;font-style:normal;font-variant:normal;font-weight:normal;font-stretch:normal;font-size:medium;line-height:normal;font-family:sans-serif;font-variant-ligatures:normal;font-variant-position:normal;font-variant-caps:normal;font-variant-numeric:normal;font-variant-alternates:normal;font-feature-settings:normal;text-indent:0;text-align:start;text-decoration:none;text-decoration-line:none;text-decoration-style:solid;text-decoration-color:#000000;letter-spacing:normal;word-spacing:normal;text-transform:none;writing-mode:lr-tb;direction:ltr;text-orientation:mixed;dominant-baseline:auto;baseline-shift:baseline;text-anchor:start;white-space:normal;shape-padding:0;clip-rule:nonzero;display:inline;overflow:visible;visibility:visible;opacity:1;isolation:auto;mix-blend-mode:normal;color-interpolation:sRGB;color-interpolation-filters:linearRGB;solid-color:#000000;solid-opacity:1;vector-effect:none;fill:#030000;fill-opacity:1;fill-rule:nonzero;stroke:none;stroke-width:13.1466;stroke-linecap:round;stroke-linejoin:round;stroke-miterlimit:4;stroke-dasharray:none;stroke-dashoffset:0;stroke-opacity:1;marker:none;paint-order:stroke fill markers;color-rendering:auto;image-rendering:auto;shape-rendering:auto;text-rendering:auto;enable-background:accumulate"
   d="m 147.55549,135.75689 a 6.57394,6.57394 0 0 0 -6.47461,6.66601 v 157.0586 a 6.57394,6.57394 0 1 0 13.14648,0 V 142.4229 a 6.57394,6.57394 0 0 0 -6.67187,-6.66601 z"
   id="path4569"
   inkscape:connector-curvature="0" /><path
   style="color:#000000;font-style:normal;font-variant:normal;font-weight:normal;font-stretch:normal;font-size:medium;line-height:normal;font-family:sans-serif;font-variant-ligatures:normal;font-variant-position:normal;font-variant-caps:normal;font-variant-numeric:normal;font-variant-alternates:normal;font-feature-settings:normal;text-indent:0;text-align:start;text-decoration:none;text-decoration-line:none;text-decoration-style:solid;text-decoration-color:#000000;letter-spacing:normal;word-spacing:normal;text-transform:none;writing-mode:lr-tb;direction:ltr;text-orientation:mixed;dominant-baseline:auto;baseline-shift:baseline;text-anchor:start;white-space:normal;shape-padding:0;clip-rule:nonzero;display:inline;overflow:visible;visibility:visible;opacity:1;isolation:auto;mix-blend-mode:normal;color-interpolation:sRGB;color-interpolation-filters:linearRGB;solid-color:#000000;solid-opacity:1;vector-effect:none;fill:#030000;fill-opacity:1;fill-rule:nonzero;stroke:none;stroke-width:12.6991;stroke-linecap:round;stroke-linejoin:round;stroke-miterlimit:4;stroke-dasharray:none;stroke-dashoffset:0;stroke-opacity:1;marker:none;paint-order:stroke fill markers;color-rendering:auto;image-rendering:auto;shape-rendering:auto;text-rendering:auto;enable-background:accumulate"
   d="m 192.37971,130.0772 a 6.3502028,6.3502028 0 0 0 -6.47071,6.83789 l 9.56446,151.33984 a 6.3502028,6.3502028 0 1 0 12.67383,-0.80078 l -9.56446,-151.33984 a 6.3502028,6.3502028 0 0 0 -6.20312,-6.03711 z"
   id="path4571"
   inkscape:connector-curvature="0" /><path
   style="color:#000000;font-style:normal;font-variant:normal;font-weight:normal;font-stretch:normal;font-size:medium;line-height:normal;font-family:sans-serif;font-variant-ligatures:normal;font-variant-position:normal;font-variant-caps:normal;font-variant-numeric:normal;font-variant-alternates:normal;font-feature-settings:normal;text-indent:0;text-align:start;text-decoration:none;text-decoration-line:none;text-decoration-style:solid;text-decoration-color:#000000;letter-spacing:normal;word-spacing:normal;text-transform:none;writing-mode:lr-tb;direction:ltr;text-orientation:mixed;dominant-baseline:auto;baseline-shift:baseline;text-anchor:start;white-space:normal;shape-padding:0;clip-rule:nonzero;display:inline;overflow:visible;visibility:visible;opacity:1;isolation:auto;mix-blend-mode:normal;color-interpolation:sRGB;color-interpolation-filters:linearRGB;solid-color:#000000;solid-opacity:1;vector-effect:none;fill:#030000;fill-opacity:1;fill-rule:nonzero;stroke:none;stroke-width:20;stroke-linecap:round;stroke-linejoin:round;stroke-miterlimit:4;stroke-dasharray:none;stroke-dashoffset:0;stroke-opacity:1;marker:none;paint-order:stroke fill markers;color-rendering:auto;image-rendering:auto;shape-rendering:auto;text-rendering:auto;enable-background:accumulate"
   d="m 127.65314,41.622125 a 10.001,10.001 0 1 0 0,20 10.001,10.001 0 1 0 0,-20 z"
   id="path4577"
   inkscape:connector-curvature="0" /><path
   style="color:#000000;font-style:normal;font-variant:normal;font-weight:normal;font-stretch:normal;font-size:medium;line-height:normal;font-family:sans-serif;font-variant-ligatures:normal;font-variant-position:normal;font-variant-caps:normal;font-variant-numeric:normal;font-variant-alternates:normal;font-feature-settings:normal;text-indent:0;text-align:start;text-decoration:none;text-decoration-line:none;text-decoration-style:solid;text-decoration-color:#000000;letter-spacing:normal;word-spacing:normal;text-transform:none;writing-mode:lr-tb;direction:ltr;text-orientation:mixed;dominant-baseline:auto;baseline-shift:baseline;text-anchor:start;white-space:normal;shape-padding:0;clip-rule:nonzero;display:inline;overflow:visible;visibility:visible;opacity:1;isolation:auto;mix-blend-mode:normal;color-interpolation:sRGB;color-interpolation-filters:linearRGB;solid-color:#000000;solid-opacity:1;vector-effect:none;fill:#030000;fill-opacity:1;fill-rule:nonzero;stroke:none;stroke-width:20;stroke-linecap:round;stroke-linejoin:round;stroke-miterlimit:4;stroke-dasharray:none;stroke-dashoffset:0;stroke-opacity:1;marker:none;paint-order:stroke fill markers;color-rendering:auto;image-rendering:auto;shape-rendering:auto;text-rendering:auto;enable-background:accumulate"
   d="m 167.65314,41.622125 a 10.001,10.001 0 1 0 0,20 10.001,10.001 0 1 0 0,-20 z"
   id="path4579"
   inkscape:connector-curvature="0" /><path
   style="color:#000000;font-style:normal;font-variant:normal;font-weight:normal;font-stretch:normal;font-size:medium;line-height:normal;font-family:sans-serif;font-variant-ligatures:normal;font-variant-position:normal;font-variant-caps:normal;font-variant-numeric:normal;font-variant-alternates:normal;font-feature-settings:normal;text-indent:0;text-align:start;text-decoration:none;text-decoration-line:none;text-decoration-style:solid;text-decoration-color:#000000;letter-spacing:normal;word-spacing:normal;text-transform:none;writing-mode:lr-tb;direction:ltr;text-orientation:mixed;dominant-baseline:auto;baseline-shift:baseline;text-anchor:start;white-space:normal;shape-padding:0;clip-rule:nonzero;display:inline;overflow:visible;visibility:visible;opacity:1;isolation:auto;mix-blend-mode:normal;color-interpolation:sRGB;color-interpolation-filters:linearRGB;solid-color:#000000;solid-opacity:1;vector-effect:none;fill:#030000;fill-opacity:1;fill-rule:nonzero;stroke:none;stroke-width:12;stroke-linecap:round;stroke-linejoin:round;stroke-miterlimit:4;stroke-dasharray:none;stroke-dashoffset:0;stroke-opacity:1;marker:none;paint-order:stroke fill markers;color-rendering:auto;image-rendering:auto;shape-rendering:auto;text-rendering:auto;enable-background:accumulate"
   d="m 92.266421,96.051812 a 6.0006,6.0006 0 0 0 -2.125,11.699218 c 39.624549,13.55827 77.834829,13.43136 113.921879,0.55469 A 6.0006,6.0006 0 1 0 200.0301,97.004937 C 166.41745,108.99869 131.41896,109.19214 94.026187,96.397515 a 6.0006,6.0006 0 0 0 -1.759766,-0.345703 z"
   id="path4575-3"
   inkscape:connector-curvature="0" />

<path
   style="color:#000000;font-style:normal;font-variant:normal;font-weight:normal;font-stretch:normal;font-size:medium;line-height:normal;font-family:sans-serif;font-variant-ligatures:normal;font-variant-position:normal;font-variant-caps:normal;font-variant-numeric:normal;font-variant-alternates:normal;font-feature-settings:normal;text-indent:0;text-align:start;text-decoration:none;text-decoration-line:none;text-decoration-style:solid;text-decoration-color:#000000;letter-spacing:normal;word-spacing:normal;text-transform:none;writing-mode:lr-tb;direction:ltr;text-orientation:mixed;dominant-baseline:auto;baseline-shift:baseline;text-anchor:start;white-space:normal;shape-padding:0;clip-rule:nonzero;display:inline;overflow:visible;visibility:visible;opacity:1;isolation:auto;mix-blend-mode:normal;color-interpolation:sRGB;color-interpolation-filters:linearRGB;solid-color:#000000;solid-opacity:1;vector-effect:none;fill:none;fill-opacity:1;fill-rule:nonzero;stroke:none;stroke-width:23.2148;stroke-linecap:round;stroke-linejoin:round;stroke-miterlimit:4;stroke-dasharray:none;stroke-dashoffset:0;stroke-opacity:1;marker:none;paint-order:stroke fill markers;color-rendering:auto;image-rendering:auto;shape-rendering:auto;text-rendering:auto;enable-background:accumulate"
   d="m 21.289608,323.03271 c 2.814971,5.00704 6.234694,9.5664 9.824269,13.56257 5.091384,5.66809 10.632164,10.36534 15.93783,13.99754 5.305667,3.6322 9.907416,6.26852 15.652392,7.61604 6.761272,1.58595 55.668501,12.78413 77.882911,12.64654 10.28286,-0.0637 26.8721,-2.468 43.05458,-5.15132 8.09124,-1.34166 15.83566,-2.76461 22.05607,-4.06833 3.11019,-0.65185 5.82876,-1.27026 8.13503,-1.87161 2.30627,-0.60137 3.57585,-0.68027 6.75229,-2.36587 4.94052,-2.62171 16.76442,-8.37662 27.20801,-17.79567 4.93346,-4.44948 9.69242,-10.02892 13.17467,-16.56989 h -10.95667 c -2.45786,3.58152 -5.42753,6.82331 -8.61231,9.69195 -9.34638,8.41859 -20.52514,13.9194 -26.01713,16.51497 -1.07464,0.50788 -2.53941,0.86778 -4.73081,1.36857 -2.1914,0.50078 -4.99436,1.06523 -8.23096,1.6695 -6.47321,1.20854 -14.67313,2.57287 -23.02469,3.86185 -8.35154,1.28898 -16.85122,2.5016 -23.92077,3.40053 -7.06955,0.89894 -12.6149,1.49078 -15.44182,1.52452 -2.93216,0.035 -8.8483,-0.63926 -16.52976,-1.69147 -7.68146,-1.0522 -16.98143,-2.49557 -26.099012,-4.03978 -9.117591,-1.5442 -18.048958,-3.18807 -24.997019,-4.64388 -3.474037,-0.72791 -6.448988,-1.40702 -8.729307,-2.0122 -1.140172,-0.30259 -2.105795,-0.5871 -2.894176,-0.85892 -0.788381,-0.2718 -1.359198,-0.46984 -1.962981,-0.89846 -4.284435,-3.0415 -14.039824,-9.66844 -22.088813,-18.94015 -1.361031,-1.56778 -2.671964,-3.22257 -3.904914,-4.94703 z"
   id="path868-9"
   inkscape:connector-curvature="0"
   sodipodi:nodetypes="cssccssccsccscsssscccccccscc" /><text
   xml:space="preserve"
   style="font-style:normal;font-weight:normal;font-size:40px;line-height:1.25;font-family:sans-serif;letter-spacing:4px;fill:#000000;fill-opacity:1;stroke:none"
   id="text8242"
   inkscape:transform-center-x="25.57721"
   inkscape:transform-center-y="166.18868"
   transform="rotate(-49.181209,95.377196,334.27124)"><textPath
     xlink:href="#path26274"
     id="textPath26383"><tspan
       id="tspan8240"
       style="font-style:normal;font-variant:normal;font-weight:normal;font-stretch:normal;font-family:'Ostrich Sans Inline';-inkscape-font-specification:'Ostrich Sans Inline'"
       rotate="0 0 0 0 0 0 0 0 0 0 0 0 0 0 0 0 0"
       dx="0">   Pass the Salt</tspan></textPath></text><ellipse
   style="fill:none;stroke:none;stroke-width:0.566929;stroke-linecap:round;stop-color:#000000"
   id="path26274"
   cx="-260.24234"
   cy="266.61362"
   rx="209.16806"
   ry="207.44403"
   transform="scale(-1,1)" /></svg>
